<svg width="12" height="22" viewBox="0 0 12 22" fill="none" xmlns="http://www.w3.org/2000/svg">
<path fill-rule="evenodd" clip-rule="evenodd" d="M7.90054 10.8736L1.07135 2.94068C1.00401 2.86248 0.945075 2.77811 0.894526 2.68926C0.540984 2.06716 0.599922 1.22184 1.07135 0.674101C1.61009 0.0482864 2.48373 0.0482864 3.02259 0.674101L10.8273 9.74034C10.8597 9.77789 10.8903 9.81713 10.919 9.85791C11.1202 10.143 11.2314 10.5017 11.2314 10.8736C11.2314 11.2987 11.0861 11.7062 10.8273 12.0069L3.02259 21.0731C2.48373 21.699 1.61009 21.699 1.07135 21.0731C1.00401 20.9948 0.945075 20.9105 0.894526 20.8216C0.540984 20.1996 0.599922 19.3542 1.07135 18.8065L7.90054 10.8736Z" fill="white"/>
</svg>
