<svg width="45" height="56" viewBox="0 0 45 56" fill="none" xmlns="http://www.w3.org/2000/svg">
<g filter="url(#filter0_d_275_25)">
<path fill-rule="evenodd" clip-rule="evenodd" d="M37.5 18.439C37.5 28.1377 29.4411 36 19.5 36C9.55889 36 1.5 28.1377 1.5 18.439V17.561C1.5 7.86233 9.55889 0 19.5 0C29.4411 0 37.5 7.86233 37.5 17.561V18.439Z" fill="url(#paint0_linear_275_25)"/>
</g>
<path d="M18.7012 6.30347C18.9214 6.10797 19.2056 6 19.5 6C19.7944 6 20.0786 6.10797 20.2988 6.30347L31.1256 15.9273C31.3519 16.1423 31.4858 16.4368 31.4989 16.7487C31.5121 17.0606 31.4035 17.3654 31.1961 17.5987C30.9888 17.832 30.6988 17.9755 30.3875 17.999C30.0763 18.0225 29.768 17.9241 29.528 17.7245L29.1238 17.3672V26.4497C29.1238 27.0878 28.8703 27.6998 28.4191 28.151C27.9679 28.6022 27.3559 28.8556 26.7179 28.8556H12.2821C11.6441 28.8556 11.0321 28.6022 10.5809 28.151C10.1297 27.6998 9.8762 27.0878 9.8762 26.4497V17.3672L9.472 17.7245C9.23196 17.9241 8.92374 18.0225 8.61247 17.999C8.3012 17.9755 8.01125 17.832 7.80386 17.5987C7.59648 17.3654 7.4879 17.0606 7.50107 16.7487C7.51424 16.4368 7.64813 16.1423 7.87445 15.9273L18.7012 6.30347ZM12.2821 15.2259V26.4497H15.8911V20.4348C15.8911 20.1158 16.0178 19.8098 16.2434 19.5842C16.469 19.3586 16.775 19.2318 17.094 19.2318H21.906C22.225 19.2318 22.531 19.3586 22.7566 19.5842C22.9822 19.8098 23.1089 20.1158 23.1089 20.4348V26.4497H26.7179V15.2271L19.5 8.81167L12.2821 15.2259ZM20.703 26.4497V21.6378H18.297V26.4497H20.703Z" fill="#15097A"/>
<path d="M8.776 42.624V51H7.096V47.436H3.508V51H1.828V42.624H3.508V46.068H7.096V42.624H8.776ZM13.3816 51.108C12.7416 51.108 12.1656 50.968 11.6536 50.688C11.1416 50.4 10.7376 49.996 10.4416 49.476C10.1536 48.956 10.0096 48.356 10.0096 47.676C10.0096 46.996 10.1576 46.396 10.4536 45.876C10.7576 45.356 11.1696 44.956 11.6896 44.676C12.2096 44.388 12.7896 44.244 13.4296 44.244C14.0696 44.244 14.6496 44.388 15.1696 44.676C15.6896 44.956 16.0976 45.356 16.3936 45.876C16.6976 46.396 16.8496 46.996 16.8496 47.676C16.8496 48.356 16.6936 48.956 16.3816 49.476C16.0776 49.996 15.6616 50.4 15.1336 50.688C14.6136 50.968 14.0296 51.108 13.3816 51.108ZM13.3816 49.644C13.6856 49.644 13.9696 49.572 14.2336 49.428C14.5056 49.276 14.7216 49.052 14.8816 48.756C15.0416 48.46 15.1216 48.1 15.1216 47.676C15.1216 47.044 14.9536 46.56 14.6176 46.224C14.2896 45.88 13.8856 45.708 13.4056 45.708C12.9256 45.708 12.5216 45.88 12.1936 46.224C11.8736 46.56 11.7136 47.044 11.7136 47.676C11.7136 48.308 11.8696 48.796 12.1816 49.14C12.5016 49.476 12.9016 49.644 13.3816 49.644ZM26.3379 44.256C27.1539 44.256 27.8099 44.508 28.3059 45.012C28.8099 45.508 29.0619 46.204 29.0619 47.1V51H27.3819V47.328C27.3819 46.808 27.2499 46.412 26.9859 46.14C26.7219 45.86 26.3619 45.72 25.9059 45.72C25.4499 45.72 25.0859 45.86 24.8139 46.14C24.5499 46.412 24.4179 46.808 24.4179 47.328V51H22.7379V47.328C22.7379 46.808 22.6059 46.412 22.3419 46.14C22.0779 45.86 21.7179 45.72 21.2619 45.72C20.7979 45.72 20.4299 45.86 20.1579 46.14C19.8939 46.412 19.7619 46.808 19.7619 47.328V51H18.0819V44.352H19.7619V45.156C19.9779 44.876 20.2539 44.656 20.5899 44.496C20.9339 44.336 21.3099 44.256 21.7179 44.256C22.2379 44.256 22.7019 44.368 23.1099 44.592C23.5179 44.808 23.8339 45.12 24.0579 45.528C24.2739 45.144 24.5859 44.836 24.9939 44.604C25.4099 44.372 25.8579 44.256 26.3379 44.256ZM36.8361 47.532C36.8361 47.772 36.8201 47.988 36.7881 48.18H31.9281C31.9681 48.66 32.1361 49.036 32.4321 49.308C32.7281 49.58 33.0921 49.716 33.5241 49.716C34.1481 49.716 34.5921 49.448 34.8561 48.912H36.6681C36.4761 49.552 36.1081 50.08 35.5641 50.496C35.0201 50.904 34.3521 51.108 33.5601 51.108C32.9201 51.108 32.3441 50.968 31.8321 50.688C31.3281 50.4 30.9321 49.996 30.6441 49.476C30.3641 48.956 30.2241 48.356 30.2241 47.676C30.2241 46.988 30.3641 46.384 30.6441 45.864C30.9241 45.344 31.3161 44.944 31.8201 44.664C32.3241 44.384 32.9041 44.244 33.5601 44.244C34.1921 44.244 34.7561 44.38 35.2521 44.652C35.7561 44.924 36.1441 45.312 36.4161 45.816C36.6961 46.312 36.8361 46.884 36.8361 47.532ZM35.0961 47.052C35.0881 46.62 34.9321 46.276 34.6281 46.02C34.3241 45.756 33.9521 45.624 33.5121 45.624C33.0961 45.624 32.7441 45.752 32.4561 46.008C32.1761 46.256 32.0041 46.604 31.9401 47.052H35.0961Z" fill="#15097A"/>
<defs>
<filter id="filter0_d_275_25" x="0.5" y="0" width="44" height="44" filterUnits="userSpaceOnUse" color-interpolation-filters="sRGB">
<feFlood flood-opacity="0" result="BackgroundImageFix"/>
<feColorMatrix in="SourceAlpha" type="matrix" values="0 0 0 0 0 0 0 0 0 0 0 0 0 0 0 0 0 0 127 0" result="hardAlpha"/>
<feOffset dx="3" dy="4"/>
<feGaussianBlur stdDeviation="2"/>
<feColorMatrix type="matrix" values="0 0 0 0 0 0 0 0 0 0.278431 0 0 0 0 0.537255 0 0 0 0.25098 0"/>
<feBlend mode="normal" in2="BackgroundImageFix" result="effect1_dropShadow_275_25"/>
<feBlend mode="normal" in="SourceGraphic" in2="effect1_dropShadow_275_25" result="shape"/>
</filter>
<linearGradient id="paint0_linear_275_25" x1="1.5" y1="0" x2="1.5" y2="36" gradientUnits="userSpaceOnUse">
<stop offset="0.374046" stop-color="white"/>
<stop offset="0.885496" stop-color="white"/>
<stop offset="1" stop-color="#B7DFC8"/>
</linearGradient>
</defs>
</svg>
