<svg width="18" height="17" viewBox="0 0 18 17" fill="none" xmlns="http://www.w3.org/2000/svg">
<mask id="mask0_0_5827" style="mask-type:luminance" maskUnits="userSpaceOnUse" x="0" y="0" width="16" height="16">
<path fill-rule="evenodd" clip-rule="evenodd" d="M0.875 0.38623H15.9597V15.1177H0.875V0.38623Z" fill="white"/>
</mask>
<g mask="url(#mask0_0_5827)">
<path fill-rule="evenodd" clip-rule="evenodd" d="M6.06445 7.62112C6.06445 6.2892 7.22639 5.20947 8.65971 5.20947C10.093 5.20947 11.255 6.2892 11.255 7.62112C11.255 8.95301 10.093 10.0328 8.65971 10.0328C7.22639 10.0328 6.06445 8.95301 6.06445 7.62112V7.62112ZM7.68652 7.62117C7.68652 7.12171 8.12227 6.7168 8.65975 6.7168C9.19722 6.7168 9.63297 7.12171 9.63297 7.62117C9.63297 8.12062 9.19722 8.52553 8.65975 8.52553C8.12227 8.52553 7.68652 8.12062 7.68652 7.62117V7.62117Z" fill="white"/>
<path fill-rule="evenodd" clip-rule="evenodd" d="M15.7974 7.62115C15.7974 7.62115 13.5265 2.79785 8.6604 2.79785C3.79428 2.79785 1.52344 7.62115 1.52344 7.62115C1.52344 7.62115 3.79428 12.4445 8.6604 12.4445C13.5265 12.4445 15.7974 7.62115 15.7974 7.62115V7.62115ZM8.66059 10.9372C10.4644 10.9372 11.8456 10.0526 12.8519 9.02068C13.3428 8.51736 13.7131 8.00851 13.9618 7.62119C13.7131 7.23388 13.3428 6.72503 12.8519 6.22171C11.8456 5.18982 10.4644 4.30518 8.66059 4.30518C6.85682 4.30518 5.47558 5.18982 4.46923 6.22171C3.97836 6.72503 3.60805 7.23388 3.35938 7.62119C3.60805 8.00851 3.97836 8.51736 4.46923 9.02068C5.47558 10.0526 6.85682 10.9372 8.66059 10.9372V10.9372Z" fill="white"/>
</g>
</svg>
