<svg width="30" height="47" viewBox="0 0 30 47" fill="none" xmlns="http://www.w3.org/2000/svg">
<path fill-rule="evenodd" clip-rule="evenodd" d="M14.9059 6.02578C14.9059 7.6912 13.5742 9.0413 11.9315 9.0413C10.2887 9.0413 8.95703 7.6912 8.95703 6.02578C8.95703 4.36035 10.2887 3.01025 11.9315 3.01025C13.5742 3.01025 14.9059 4.36035 14.9059 6.02578ZM11.932 11.0517C14.6699 11.0517 16.8893 8.80158 16.8893 6.02587C16.8893 3.25016 14.6699 1 11.932 1C9.1941 1 6.97461 3.25016 6.97461 6.02587C6.97461 8.80158 9.1941 11.0517 11.932 11.0517Z" fill="#A9A4CC"/>
<path fill-rule="evenodd" clip-rule="evenodd" d="M4.99139 21.1037C5.53897 21.1037 5.9765 20.6581 6.04419 20.1148C6.4462 16.8876 8.8015 14.0675 12.4275 14.0675C12.9136 14.0675 13.372 14.1168 13.8026 14.2083C14.3482 14.3242 14.9351 14.0763 15.1364 13.5562C15.335 13.0428 15.0837 12.4587 14.5508 12.321C13.8839 12.1487 13.1746 12.0571 12.4275 12.0571C7.46271 12.0571 4.46892 16.0165 4.05056 20.1139C3.99495 20.6587 4.44381 21.1037 4.99139 21.1037Z" fill="#A9A4CC"/>
<path fill-rule="evenodd" clip-rule="evenodd" d="M22.0428 12.6306C22.8717 13.8568 24.0994 14.7583 25.5174 15.182C26.2524 15.4017 26.5407 16.3012 26.0734 16.9169C25.1711 18.1058 24.7014 19.567 24.7418 21.0589L24.7422 21.0706C24.7632 21.8472 24.0086 22.4031 23.2865 22.1428C21.8944 21.6409 20.3707 21.6409 18.9786 22.1428C18.2566 22.4031 17.5019 21.8472 17.523 21.0706L17.5233 21.059C17.5638 19.567 17.094 18.1058 16.1917 16.9169C15.7244 16.3012 16.0127 15.4017 16.7477 15.182C18.1658 14.7583 19.3934 13.8568 20.2223 12.6306L20.2329 12.6149C20.6661 11.9741 21.599 11.9741 22.0322 12.6149L22.0428 12.6306ZM21.9012 15.9783C21.533 15.4336 20.7309 15.4336 20.3627 15.9783C20.2426 16.156 20.0647 16.2866 19.8593 16.348L19.8556 16.3491C19.2271 16.5369 18.9797 17.2947 19.3762 17.8172L19.3864 17.8306C19.5161 18.0015 19.5778 18.2115 19.5778 18.4259L19.5772 18.4492C19.5595 19.1016 20.2037 19.5674 20.8177 19.346C21.0208 19.2728 21.2431 19.2728 21.4462 19.346C22.0601 19.5674 22.7044 19.1016 22.6867 18.4492L22.6862 18.4284C22.6862 18.2123 22.7483 18.0008 22.879 17.8286L22.8877 17.8172C23.2842 17.2946 23.0368 16.5369 22.4083 16.3491L22.4046 16.348C22.1992 16.2866 22.0213 16.156 21.9012 15.9783Z" fill="#A9A4CC"/>
<path opacity="0.35" d="M9.96 33.624V42H8.28V36.552L6.036 42H4.764L2.508 36.552V42H0.828V33.624H2.736L5.4 39.852L8.064 33.624H9.96ZM12.473 34.56C12.177 34.56 11.929 34.468 11.729 34.284C11.537 34.092 11.441 33.856 11.441 33.576C11.441 33.296 11.537 33.064 11.729 32.88C11.929 32.688 12.177 32.592 12.473 32.592C12.769 32.592 13.013 32.688 13.205 32.88C13.405 33.064 13.505 33.296 13.505 33.576C13.505 33.856 13.405 34.092 13.205 34.284C13.013 34.468 12.769 34.56 12.473 34.56ZM13.301 35.352V42H11.621V35.352H13.301ZM18.6448 35.256C19.4368 35.256 20.0768 35.508 20.5648 36.012C21.0528 36.508 21.2968 37.204 21.2968 38.1V42H19.6168V38.328C19.6168 37.8 19.4848 37.396 19.2208 37.116C18.9568 36.828 18.5968 36.684 18.1408 36.684C17.6768 36.684 17.3088 36.828 17.0368 37.116C16.7728 37.396 16.6408 37.8 16.6408 38.328V42H14.9608V35.352H16.6408V36.18C16.8648 35.892 17.1488 35.668 17.4928 35.508C17.8448 35.34 18.2288 35.256 18.6448 35.256ZM29.0744 38.532C29.0744 38.772 29.0584 38.988 29.0264 39.18H24.1664C24.2064 39.66 24.3744 40.036 24.6704 40.308C24.9664 40.58 25.3304 40.716 25.7624 40.716C26.3864 40.716 26.8304 40.448 27.0944 39.912H28.9064C28.7144 40.552 28.3464 41.08 27.8024 41.496C27.2584 41.904 26.5904 42.108 25.7984 42.108C25.1584 42.108 24.5824 41.968 24.0704 41.688C23.5664 41.4 23.1704 40.996 22.8824 40.476C22.6024 39.956 22.4624 39.356 22.4624 38.676C22.4624 37.988 22.6024 37.384 22.8824 36.864C23.1624 36.344 23.5544 35.944 24.0584 35.664C24.5624 35.384 25.1424 35.244 25.7984 35.244C26.4304 35.244 26.9944 35.38 27.4904 35.652C27.9944 35.924 28.3824 36.312 28.6544 36.816C28.9344 37.312 29.0744 37.884 29.0744 38.532ZM27.3344 38.052C27.3264 37.62 27.1704 37.276 26.8664 37.02C26.5624 36.756 26.1904 36.624 25.7504 36.624C25.3344 36.624 24.9824 36.752 24.6944 37.008C24.4144 37.256 24.2424 37.604 24.1784 38.052H27.3344Z" fill="#15097A"/>
</svg>
