<svg width="24" height="28" viewBox="0 0 24 28" fill="none" xmlns="http://www.w3.org/2000/svg">
<g id="icon/arrow-left" clip-path="url(#clip0_225_2738)">
<mask id="mask0_225_2738" style="mask-type:luminance" maskUnits="userSpaceOnUse" x="0" y="0" width="25" height="25">
<path id="arrow-left" fill-rule="evenodd" clip-rule="evenodd" d="M0 0.0161133H24.7059V19.0161C24.7059 21.7775 22.4673 24.0161 19.7059 24.0161H5C2.23858 24.0161 0 21.7775 0 19.0161V0.0161133Z" fill="white"/>
</mask>
<g mask="url(#mask0_225_2738)">
<path id="Vector" fill-rule="evenodd" clip-rule="evenodd" d="M6.19406 13.2659H21.3596C22.0703 13.2659 22.6463 12.7063 22.6463 12.0159C22.6463 11.3256 22.0703 10.7659 21.3596 10.7659H6.19406L11.2765 5.82871C11.7789 5.34056 11.7789 4.5491 11.2765 4.06093C11.2137 3.99992 11.1459 3.94654 11.0746 3.90077C10.5751 3.58041 9.8964 3.63381 9.4567 4.06093L2.17767 11.132C1.67515 11.6202 1.67515 12.4117 2.17767 12.8998L9.4567 19.9709C9.95923 20.459 10.7739 20.459 11.2765 19.9709C11.7789 19.4827 11.7789 18.6913 11.2765 18.2031L6.19406 13.2659Z" fill="#15097A"/>
</g>
</g>
<defs>
<clipPath id="clip0_225_2738">
<rect width="24" height="27.8555" fill="white" transform="translate(0 0.0161133)"/>
</clipPath>
</defs>
</svg>
